<?xml version="1.0" encoding="UTF-8"?>
<svg id="_图层_1" data-name="图层 1" xmlns="http://www.w3.org/2000/svg" viewBox="0 0 306.38 245.19">
  <defs>
    <style>
      .cls-1 {
        fill: #040000;
        stroke-width: 0px;
      }
    </style>
  </defs>
  <path class="cls-1" d="M49.85,95.3h63.59c8.16,0,14.79-6.64,14.79-14.79s-6.64-14.79-14.79-14.79h-44.11v9.75h44.11c2.78,0,5.04,2.26,5.04,5.04s-2.26,5.04-5.04,5.04H18.04v9.75h31.81Z"/>
  <path class="cls-1" d="M49.23,147.27h32.87c9.65,0,17.5-7.85,17.5-17.5s-7.85-17.5-17.5-17.5h-40.47v9.75h40.47c4.27,0,7.75,3.48,7.75,7.75s-3.48,7.75-7.75,7.75H0v9.75h49.23Z"/>
  <path class="cls-1" d="M281.83,117.35h-25.26v-38.62c0-13.35-10.86-24.21-24.22-24.21s-24.21,10.86-24.21,24.21v38.62h-5.59l-38.87-38.87v-10.42h22.76v-9.75h-22.76V9.84c56.49,2.14,102.48,46,107.97,101.59h9.79C275.78,49.04,223.19,0,159.36,0,107.01,0,62.23,32.98,44.68,79.25h10.49C71.54,40.06,109.4,12,153.94,9.88v48.44h-17.1v9.75h17.1v10.42l-41.39,41.39v-14.18h-9.75v114.53c-24.96-14.52-43.87-38.32-51.97-66.65h-10.1c13.76,52.65,61.73,91.62,118.63,91.62,63.83,0,116.42-49.04,122.08-111.43h-9.79c-1.65,16.68-6.94,32.3-15.07,46.06v-52.73h49.81v-9.75h-24.55ZM217.9,78.74c0-7.98,6.49-14.47,14.47-14.47s14.47,6.49,14.47,14.47v8.95h-28.93v-8.95ZM217.9,97.44h28.93v19.91h-28.93v-19.91ZM208.15,168.86h-44.46v-2.89l38.87-38.87h5.59v41.76ZM158.81,87.4l29.95,29.96h-32.38v9.75h32.38l-29.95,29.96-34.83-34.83,34.83-34.83ZM153.94,165.97v2.89h-41.39v-44.28l41.39,41.39ZM112.55,178.61h41.39v56.7c-14.7-.7-28.67-4.22-41.39-10.04v-46.66ZM163.69,178.61h44.46v45.73c-13.55,6.52-28.59,10.41-44.46,11.01v-56.75ZM246.83,193.81c-8.12,9.96-17.91,18.52-28.93,25.23v-91.94h28.93v66.71Z"/>
</svg>